<?xml version="1.0" standalone="no"?>
<!DOCTYPE svg PUBLIC "-//W3C//DTD SVG 20010904//EN"
 "http://www.w3.org/TR/2001/REC-SVG-20010904/DTD/svg10.dtd">
<svg version="1.0" xmlns="http://www.w3.org/2000/svg"
 width="1000.000000pt" height="1000.000000pt" viewBox="0 0 1000.000000 1000.000000"
 preserveAspectRatio="xMidYMid meet">

<g transform="translate(0.000000,1000.000000) scale(0.100000,-0.100000)"
fill="#000000" stroke="none">
<path d="M4796 8993 c-4 -5 -58 -11 -119 -15 -184 -10 -376 -38 -547 -79 -25
-5 -58 -13 -75 -15 -16 -3 -39 -9 -50 -13 -44 -18 -93 -31 -113 -31 -11 0 -24
-4 -27 -10 -3 -5 -17 -10 -30 -10 -13 0 -27 -4 -30 -10 -3 -5 -15 -10 -26 -10
-10 0 -27 -4 -37 -9 -9 -5 -37 -15 -62 -22 -25 -7 -49 -16 -55 -21 -5 -4 -15
-8 -22 -8 -7 0 -35 -10 -61 -21 -26 -12 -63 -28 -82 -36 -19 -8 -57 -26 -84
-39 -28 -13 -56 -24 -63 -24 -7 0 -13 -4 -13 -10 0 -5 -9 -10 -20 -10 -11 0
-20 -4 -20 -10 0 -5 -6 -10 -14 -10 -12 0 -135 -59 -146 -70 -3 -3 -25 -16
-50 -29 -25 -14 -47 -27 -50 -30 -3 -3 -25 -17 -50 -30 -25 -14 -47 -27 -50
-30 -8 -10 -64 -42 -82 -48 -10 -3 -18 -9 -18 -14 0 -5 -6 -9 -14 -9 -7 0 -27
-13 -44 -30 -18 -16 -36 -30 -40 -30 -5 0 -23 -13 -40 -30 -18 -16 -36 -30
-40 -30 -5 0 -23 -13 -40 -30 -18 -16 -35 -30 -39 -30 -5 0 -21 -12 -38 -28
-16 -15 -55 -47 -85 -72 -29 -25 -97 -86 -148 -137 -52 -51 -99 -90 -105 -86
-6 3 -7 1 -3 -5 3 -6 -33 -50 -83 -101 -49 -49 -102 -107 -118 -128 -15 -21
-40 -51 -55 -67 -16 -16 -28 -33 -28 -39 0 -5 -8 -17 -18 -26 -10 -9 -29 -32
-42 -51 -14 -19 -32 -44 -42 -54 -10 -11 -18 -26 -18 -33 0 -7 -3 -13 -8 -13
-4 0 -18 -18 -32 -40 -14 -22 -28 -40 -31 -40 -4 0 -12 -13 -19 -30 -7 -16
-16 -30 -21 -30 -5 0 -9 -6 -9 -13 0 -7 -9 -23 -20 -35 -11 -12 -20 -28 -20
-37 0 -8 -4 -15 -8 -15 -5 0 -19 -22 -32 -50 -13 -27 -27 -50 -32 -50 -4 0 -8
-9 -8 -20 0 -11 -4 -20 -10 -20 -5 0 -10 -9 -10 -20 0 -11 -4 -20 -10 -20 -5
0 -10 -9 -10 -19 0 -11 -4 -21 -8 -23 -11 -4 -92 -166 -92 -184 0 -8 -4 -14
-10 -14 -5 0 -10 -7 -10 -15 0 -8 -9 -30 -20 -50 -11 -20 -20 -44 -20 -55 0
-11 -4 -20 -10 -20 -5 0 -10 -9 -10 -19 0 -11 -4 -23 -10 -26 -5 -3 -10 -17
-10 -31 0 -13 -4 -24 -10 -24 -5 0 -10 -11 -10 -24 0 -14 -4 -28 -10 -31 -5
-3 -10 -17 -10 -30 0 -13 -4 -27 -10 -30 -5 -3 -10 -17 -10 -31 0 -13 -4 -24
-10 -24 -5 0 -10 -13 -10 -29 0 -17 -4 -32 -9 -35 -5 -3 -11 -20 -14 -38 -3
-18 -10 -51 -17 -73 -6 -22 -14 -53 -17 -70 -2 -16 -8 -39 -13 -50 -11 -25
-20 -74 -27 -142 -3 -29 -9 -53 -14 -53 -5 0 -9 -22 -9 -49 0 -28 -4 -53 -10
-56 -5 -3 -10 -43 -11 -88 0 -56 -3 -76 -9 -62 -13 29 -5 -883 8 -975 18 -122
47 -293 57 -330 3 -14 11 -45 16 -70 19 -85 48 -196 59 -225 4 -11 22 -67 40
-125 19 -58 37 -109 42 -114 4 -6 8 -18 8 -28 0 -10 4 -26 9 -36 5 -9 13 -28
19 -42 5 -14 19 -45 30 -70 11 -25 28 -63 37 -85 9 -22 25 -56 35 -77 10 -20
16 -39 13 -42 -4 -3 8 -6 25 -6 40 0 40 10 2 88 -17 34 -30 69 -30 77 0 8 -4
15 -10 15 -5 0 -10 9 -10 20 0 11 -4 20 -8 20 -5 0 -15 22 -22 50 -7 28 -16
50 -20 50 -4 0 -13 23 -20 51 -8 27 -18 52 -22 55 -4 3 -8 16 -8 29 0 13 -4
27 -10 30 -5 3 -10 15 -10 26 0 10 -4 27 -9 37 -11 21 -40 112 -53 167 -5 22
-13 57 -18 78 -37 141 -49 200 -56 267 -3 25 -9 54 -14 65 -5 11 -12 47 -15
80 -3 33 -10 107 -17 165 -12 111 -14 672 -3 823 4 48 11 87 16 87 5 0 9 32 9
71 0 44 4 68 10 64 6 -4 10 15 10 49 0 30 5 58 10 61 5 3 10 24 10 45 0 21 5
42 10 45 6 3 10 24 10 45 0 21 5 42 10 45 6 3 10 19 10 35 0 16 5 32 10 35 5
3 10 16 10 27 0 23 17 81 31 110 5 10 9 27 9 37 0 11 5 23 10 26 6 3 10 17 10
31 0 13 5 24 10 24 6 0 10 8 10 18 0 20 23 89 33 98 4 4 7 16 7 26 0 10 5 18
10 18 6 0 10 9 10 20 0 20 4 29 28 77 7 13 12 30 12 38 0 8 5 15 10 15 6 0 10
6 10 14 0 15 159 337 171 346 3 3 19 28 33 57 15 28 34 57 42 64 8 6 14 17 14
24 0 6 9 20 20 30 11 10 20 24 20 32 0 7 4 13 8 13 5 0 15 12 23 28 8 15 22
36 32 46 9 11 17 26 17 33 0 7 4 13 8 13 4 0 15 13 25 29 9 15 32 46 52 67 19
21 35 44 35 51 0 6 3 13 8 15 4 2 24 22 44 45 20 23 40 38 44 35 4 -4 4 -2 0
5 -3 6 4 22 16 35 13 13 53 56 90 95 37 39 70 68 74 64 4 -3 4 -1 0 6 -8 14
61 86 75 77 5 -3 8 0 7 8 -2 7 3 12 10 10 8 -1 11 2 8 7 -4 5 3 16 14 24 12 8
42 34 68 58 26 24 68 61 94 82 26 21 53 43 60 50 7 7 29 24 48 38 19 15 46 37
60 49 14 12 37 29 53 38 15 9 27 20 27 24 0 4 6 8 13 8 6 0 26 12 42 26 17 14
50 38 75 52 25 14 47 30 48 34 2 4 8 8 14 8 5 0 29 14 53 30 24 17 46 30 49
30 4 0 36 18 72 40 36 22 72 40 80 40 8 0 14 5 14 10 0 6 9 10 20 10 11 0 20
5 20 10 0 6 9 10 20 10 11 0 20 5 20 10 0 6 9 10 20 10 11 0 20 5 20 10 0 6 9
10 20 10 11 0 20 5 20 10 0 6 9 10 19 10 11 0 23 5 26 10 3 6 15 10 26 10 10
0 19 5 19 10 0 6 9 10 19 10 11 0 23 5 26 10 3 6 15 10 26 10 10 0 19 5 19 10
0 6 9 10 20 10 11 0 28 4 38 9 9 5 31 14 47 21 17 7 38 16 47 21 10 5 27 9 37
9 11 0 23 5 26 10 3 6 17 10 31 10 13 0 24 5 24 10 0 6 11 10 24 10 14 0 28 5
31 10 3 6 19 10 35 10 16 0 32 5 35 10 3 6 21 10 40 10 19 0 37 5 40 10 3 6
24 10 46 10 24 0 38 4 34 10 -4 6 9 10 32 10 22 0 43 4 49 9 5 6 30 11 57 12
26 2 47 6 47 11 0 4 23 8 50 8 28 0 50 5 50 10 0 6 33 10 78 10 53 0 72 3 62
10 -10 7 20 10 95 11 71 0 103 3 90 9 -12 5 122 8 320 8 187 0 329 -4 315 -8
-16 -5 17 -8 90 -9 78 -1 110 -4 100 -11 -10 -7 11 -10 68 -10 53 0 81 -4 77
-10 -4 -6 15 -10 49 -10 31 0 56 -4 56 -10 0 -5 20 -10 44 -10 25 0 47 -4 50
-9 6 -8 20 -11 124 -27 23 -3 45 -10 48 -15 3 -5 18 -9 34 -9 16 0 32 -4 35
-10 3 -5 16 -10 28 -10 24 0 93 -22 103 -33 4 -4 16 -7 26 -7 10 0 27 -4 38
-10 11 -5 29 -14 40 -20 11 -5 29 -10 40 -10 11 0 20 -4 20 -10 0 -5 11 -10
25 -10 14 0 25 -4 25 -10 0 -5 11 -10 25 -10 14 0 25 -4 25 -10 0 -5 11 -10
25 -10 14 0 25 -4 25 -10 0 -5 6 -10 14 -10 8 0 31 -9 53 -19 21 -10 90 -44
153 -75 130 -64 174 -88 178 -98 2 -5 12 -8 23 -8 10 0 19 -4 19 -9 0 -5 8
-11 18 -14 15 -5 59 -30 87 -49 5 -4 60 -40 120 -80 61 -39 117 -80 126 -90 9
-10 21 -18 26 -18 5 0 31 -20 59 -45 27 -24 52 -44 55 -45 4 0 22 -14 40 -31
19 -18 54 -48 79 -68 88 -70 361 -351 354 -364 -4 -6 -4 -9 0 -5 4 3 24 -12
44 -35 20 -23 45 -49 55 -58 9 -9 17 -20 17 -25 0 -5 13 -22 28 -39 15 -16 39
-46 52 -65 13 -19 30 -41 37 -48 7 -7 13 -17 13 -21 0 -4 11 -21 25 -37 14
-16 25 -33 25 -38 0 -5 8 -16 18 -25 9 -9 23 -28 31 -43 8 -16 18 -28 23 -28
4 0 8 -5 8 -11 0 -6 8 -23 19 -37 10 -15 28 -43 39 -63 43 -77 47 -84 52 -89
11 -10 150 -296 150 -307 0 -7 5 -13 10 -13 6 0 10 -6 10 -13 0 -7 9 -32 20
-55 11 -22 20 -46 20 -52 0 -5 4 -18 9 -28 12 -24 25 -57 51 -127 12 -33 26
-68 31 -77 5 -10 9 -26 9 -36 0 -10 4 -22 8 -28 5 -5 15 -36 22 -69 7 -33 17
-64 20 -70 4 -5 10 -23 13 -40 3 -16 11 -50 17 -75 51 -204 83 -408 101 -630
14 -166 20 -569 9 -545 -6 13 -9 -22 -9 -103 -1 -79 -5 -121 -11 -117 -6 4
-10 -23 -10 -74 0 -45 -4 -81 -9 -81 -5 0 -11 -24 -14 -52 -3 -29 -10 -75 -16
-103 -9 -47 -15 -70 -42 -177 -6 -24 -13 -58 -16 -76 -3 -18 -9 -35 -14 -38
-5 -3 -9 -18 -9 -34 0 -16 -5 -32 -10 -35 -6 -3 -10 -19 -10 -36 0 -16 -4 -29
-10 -29 -5 0 -10 -13 -10 -30 0 -16 -4 -30 -10 -30 -5 0 -10 -13 -10 -30 0
-16 -4 -30 -10 -30 -5 0 -10 -9 -10 -20 0 -11 -4 -28 -9 -38 -9 -18 -29 -64
-41 -97 -4 -11 -22 -51 -39 -88 -17 -37 -31 -74 -31 -82 0 -8 -4 -15 -10 -15
-5 0 -10 -9 -10 -20 0 -11 -4 -20 -10 -20 -5 0 -10 -12 -10 -26 0 -14 -4 -23
-10 -19 -5 3 -10 1 -10 -4 0 -16 49 -13 66 3 8 8 14 22 14 30 0 9 5 16 10 16
6 0 10 6 10 13 0 8 6 27 14 43 8 16 21 45 29 64 8 19 24 56 36 82 11 26 21 54
21 62 0 8 5 18 10 21 6 3 10 15 10 26 0 10 5 19 10 19 6 0 10 14 10 30 0 17 5
30 10 30 6 0 10 14 10 30 0 17 5 30 10 30 6 0 10 14 10 30 0 17 5 30 10 30 6
0 10 15 10 34 0 19 5 38 10 41 5 3 10 17 10 30 0 13 5 27 10 30 6 3 10 21 10
40 0 19 5 37 10 40 6 3 10 24 10 45 0 21 5 42 10 45 6 3 10 24 10 45 0 21 5
42 10 45 6 3 10 31 10 61 0 34 4 53 10 49 6 -4 10 18 10 59 0 37 4 66 10 66 6
0 10 33 10 78 0 43 5 83 10 88 14 14 6 706 -9 824 -20 156 -45 311 -60 383 -6
26 -15 66 -20 90 -13 57 -27 114 -41 162 -6 22 -15 54 -19 70 -18 63 -83 252
-102 292 -10 24 -19 46 -19 51 0 8 -33 82 -50 114 -6 10 -10 25 -10 33 0 8 -4
15 -10 15 -5 0 -10 6 -10 14 0 17 -81 180 -92 184 -5 2 -8 12 -8 23 0 10 -4
19 -10 19 -5 0 -10 9 -10 19 0 11 -3 21 -7 23 -10 4 -42 57 -50 81 -3 9 -9 17
-14 17 -5 0 -9 9 -9 20 0 11 -4 20 -10 20 -5 0 -10 6 -10 13 0 7 -8 22 -17 33
-10 10 -24 31 -32 47 -8 15 -18 27 -23 27 -4 0 -8 6 -8 13 0 7 -9 23 -20 35
-11 12 -20 23 -20 26 0 8 -187 255 -243 321 -107 126 -451 459 -530 514 -12 8
-35 28 -52 43 -16 15 -34 28 -38 28 -4 0 -22 13 -40 30 -18 16 -38 30 -44 30
-7 0 -13 4 -13 8 0 4 -12 15 -27 24 -16 9 -41 28 -58 42 -16 14 -34 26 -38 26
-5 0 -28 14 -52 30 -24 17 -48 30 -54 30 -6 0 -11 4 -11 9 0 5 -8 11 -17 14
-18 6 -73 37 -83 47 -10 10 -65 41 -82 47 -10 3 -18 9 -18 14 0 5 -9 9 -20 9
-11 0 -20 5 -20 10 0 6 -9 10 -20 10 -11 0 -20 5 -20 10 0 6 -9 10 -20 10 -11
0 -20 5 -20 10 0 6 -9 10 -19 10 -11 0 -23 5 -26 10 -3 6 -15 10 -26 10 -10 0
-19 5 -19 10 0 6 -9 10 -19 10 -11 0 -23 5 -26 10 -3 6 -15 10 -26 10 -10 0
-19 5 -19 10 0 6 -7 10 -15 10 -8 0 -24 5 -35 10 -11 6 -29 15 -40 20 -11 6
-27 10 -35 10 -8 0 -15 5 -15 10 0 6 -9 10 -19 10 -11 0 -23 5 -26 10 -3 6
-15 10 -26 10 -10 0 -27 4 -37 9 -27 14 -209 71 -226 71 -9 0 -24 4 -34 9 -9
5 -37 14 -62 21 -25 6 -59 16 -76 21 -17 5 -44 9 -60 9 -17 0 -34 4 -39 9 -9
9 -38 13 -160 27 -27 3 -54 10 -60 15 -5 5 -42 9 -82 9 -42 0 -73 4 -73 10 0
6 -51 10 -132 11 -82 1 -123 4 -108 9 14 5 -70 8 -196 9 -121 1 -224 -2 -228
-6z"/>
<path d="M4139 7533 c-5 -16 -21 -50 -35 -77 -13 -28 -24 -56 -24 -63 0 -7 -4
-13 -10 -13 -5 0 -10 -9 -10 -20 0 -11 -4 -20 -10 -20 -5 0 -10 -9 -10 -20 0
-11 -4 -20 -10 -20 -5 0 -10 -9 -10 -20 0 -11 -4 -20 -10 -20 -5 0 -10 -6 -10
-12 0 -7 -32 -77 -70 -156 -39 -79 -70 -149 -70 -157 0 -8 -4 -15 -10 -15 -5
0 -10 -9 -10 -20 0 -11 -4 -20 -10 -20 -5 0 -10 -9 -10 -20 0 -11 -4 -20 -10
-20 -5 0 -10 -9 -10 -20 0 -11 -4 -20 -10 -20 -5 0 -10 -9 -10 -20 0 -11 -4
-20 -10 -20 -5 0 -10 -6 -10 -12 0 -7 -32 -77 -70 -156 -39 -79 -70 -149 -70
-157 0 -8 -4 -15 -10 -15 -5 0 -10 -9 -10 -20 0 -11 -4 -20 -10 -20 -5 0 -10
-9 -10 -20 0 -11 -4 -20 -10 -20 -5 0 -10 -9 -10 -20 0 -11 -4 -20 -10 -20 -5
0 -10 -9 -10 -20 0 -11 -4 -20 -10 -20 -5 0 -10 -6 -10 -14 0 -8 -9 -31 -20
-53 -57 -111 -120 -247 -120 -259 0 -8 -4 -14 -10 -14 -5 0 -10 -9 -10 -20 0
-11 -4 -20 -10 -20 -5 0 -10 -9 -10 -20 0 -11 -4 -20 -10 -20 -5 0 -10 -9 -10
-20 0 -11 -4 -20 -10 -20 -5 0 -10 -6 -10 -13 0 -7 -36 -86 -80 -175 -44 -90
-80 -170 -80 -178 0 -7 -4 -14 -10 -14 -5 0 -10 -9 -10 -20 0 -11 -4 -20 -10
-20 -5 0 -10 -9 -10 -20 0 -11 -4 -20 -10 -20 -5 0 -10 -9 -10 -20 0 -11 -4
-20 -10 -20 -5 0 -10 -9 -10 -20 0 -11 -4 -20 -10 -20 -5 0 -10 -6 -10 -13 0
-7 -27 -68 -60 -135 -33 -68 -60 -129 -60 -137 0 -8 -4 -15 -10 -15 -5 0 -10
-9 -10 -20 0 -11 -4 -20 -10 -20 -5 0 -10 -9 -10 -20 0 -11 -4 -20 -10 -20 -5
0 -10 -9 -10 -20 0 -11 -4 -20 -10 -20 -5 0 -10 -9 -10 -20 0 -11 -4 -20 -10
-20 -5 0 -10 -6 -10 -13 0 -7 -31 -77 -70 -156 -38 -78 -70 -149 -70 -157 0
-7 -4 -14 -10 -14 -5 0 -10 -9 -10 -20 0 -11 -4 -20 -10 -20 -5 0 -10 -9 -10
-20 0 -11 -4 -20 -10 -20 -5 0 -10 -9 -10 -20 0 -11 -4 -20 -10 -20 -5 0 -10
-9 -10 -20 0 -11 -4 -20 -10 -20 -5 0 -10 -6 -10 -14 0 -8 -9 -31 -20 -53 -57
-111 -120 -247 -120 -259 0 -8 -4 -14 -10 -14 -5 0 -10 -9 -10 -20 0 -11 -4
-20 -10 -20 -5 0 -10 -9 -10 -20 0 -11 -4 -20 -10 -20 -5 0 -10 -9 -10 -20 0
-11 -4 -20 -10 -20 -5 0 -10 -5 -10 -12 0 -7 -32 -76 -70 -155 -38 -79 -70
-150 -70 -158 0 -8 -4 -15 -10 -15 -5 0 -10 -9 -10 -20 0 -11 -4 -20 -10 -20
-5 0 -10 -9 -10 -20 0 -11 -4 -20 -10 -20 -5 0 -10 -9 -10 -20 0 -11 -4 -20
-10 -20 -5 0 -10 -9 -10 -20 0 -11 -4 -20 -10 -20 -5 0 -10 -9 -10 -20 0 -11
-4 -20 -10 -20 -5 0 -10 -6 -10 -13 0 -7 -27 -68 -60 -135 -33 -68 -60 -129
-60 -137 0 -8 -4 -15 -10 -15 -5 0 -10 -9 -10 -20 0 -11 -4 -20 -10 -20 -5 0
-10 -9 -10 -20 0 -11 -4 -20 -10 -20 -5 0 -10 -9 -10 -20 0 -11 -4 -20 -10
-20 -5 0 -10 -9 -10 -20 0 -11 -4 -20 -10 -20 -5 0 -10 -6 -10 -13 0 -7 -31
-77 -70 -156 -38 -78 -70 -149 -70 -157 0 -7 -4 -14 -10 -14 -5 0 -10 -9 -10
-20 0 -11 -4 -20 -10 -20 -5 0 -10 -9 -10 -20 0 -11 -4 -20 -10 -20 -5 0 -10
-9 -10 -20 0 -11 -4 -20 -10 -20 -5 0 -10 -9 -10 -20 0 -11 -4 -20 -10 -20 -5
0 -10 -6 -10 -13 0 -7 -31 -77 -70 -156 -38 -78 -70 -149 -70 -157 0 -7 -4
-14 -10 -14 -5 0 -10 -9 -10 -20 0 -11 -4 -20 -10 -20 -5 0 -10 -9 -10 -20 0
-11 -4 -20 -10 -20 -5 0 -10 -9 -10 -20 0 -11 -4 -20 -10 -20 -5 0 -10 -6 -10
-12 0 -7 -32 -77 -70 -156 -39 -79 -70 -149 -70 -157 0 -8 -4 -15 -10 -15 -5
0 -10 -9 -10 -20 0 -11 -4 -20 -10 -20 -5 0 -10 -9 -10 -20 0 -11 -4 -20 -10
-20 -5 0 -10 -9 -10 -20 0 -11 -4 -20 -10 -20 -5 0 -10 -9 -10 -20 0 -11 -4
-20 -10 -20 -5 0 -10 -6 -10 -14 0 -8 -9 -31 -20 -53 -112 -219 -139 -293
-104 -293 16 0 44 23 44 36 0 4 35 80 79 168 43 89 98 202 121 251 23 50 75
158 115 240 133 273 145 300 145 312 0 7 5 13 10 13 6 0 10 5 10 12 0 7 35 84
79 172 43 89 98 202 121 251 23 50 77 162 120 250 43 88 92 192 110 230 38 81
223 464 249 515 10 20 24 34 32 32 8 -2 11 0 7 4 -8 7 17 57 45 88 9 11 17 24
17 28 0 5 5 14 10 21 21 24 90 138 90 147 0 6 4 10 8 10 5 0 15 12 23 28 8 15
22 36 32 46 9 11 17 25 17 32 0 7 4 14 8 16 7 2 92 120 127 176 6 8 18 25 27
36 9 12 27 35 40 53 102 141 300 346 420 435 20 15 42 33 50 40 7 7 25 19 41
27 15 8 27 18 27 23 0 4 5 8 11 8 6 0 23 8 37 19 15 10 43 28 63 39 20 11 45
25 55 31 42 23 152 71 192 83 23 7 42 16 42 20 0 5 13 8 29 8 17 0 33 5 36 10
3 6 22 10 41 10 19 0 34 5 34 10 0 6 20 10 45 10 25 0 45 5 45 10 0 6 25 10
55 10 30 0 55 5 55 10 0 6 30 10 70 10 l70 0 0 -1263 0 -1264 30 5 30 4 0
1269 0 1269 243 2 c154 1 215 4 167 8 -52 4 -22 6 100 6 141 0 157 -1 80 -6
-55 -4 59 -7 268 -8 382 -2 391 -1 344 41 -17 15 -74 17 -610 17 l-592 0 0
1240 0 1240 -35 0 c-30 0 -37 -5 -46 -27z m21 -1293 l0 -1180 -53 0 c-29 0
-57 -4 -62 -9 -6 -5 -39 -12 -75 -14 -64 -5 -120 -16 -190 -36 -19 -5 -46 -13
-60 -16 -14 -4 -34 -10 -45 -15 -11 -4 -36 -13 -55 -20 -55 -19 -69 -25 -165
-70 -49 -23 -92 -45 -95 -48 -3 -4 -25 -18 -50 -31 -25 -14 -51 -31 -58 -38
-7 -7 -17 -13 -22 -13 -5 0 -15 -6 -22 -13 -7 -7 -22 -19 -34 -27 -75 -53
-334 -294 -334 -312 0 -4 -22 -31 -50 -60 -27 -29 -50 -56 -50 -60 0 -4 -16
-25 -35 -45 -19 -20 -33 -39 -31 -41 3 -2 -9 -18 -25 -34 -16 -17 -29 -35 -29
-40 0 -5 -11 -20 -24 -33 -14 -13 -27 -34 -31 -45 -3 -11 -10 -20 -15 -20 -5
0 -11 -8 -15 -19 -6 -20 -55 -81 -55 -69 0 4 9 23 20 43 11 20 20 42 20 50 0
8 5 15 10 15 6 0 10 9 10 20 0 11 5 20 10 20 6 0 10 5 10 12 0 7 22 57 49 113
114 231 131 269 131 282 0 7 5 13 10 13 6 0 10 9 10 20 0 11 5 20 10 20 6 0
10 5 10 12 0 6 33 80 74 162 40 83 90 187 111 231 21 44 77 161 125 260 125
257 130 267 130 282 0 7 5 13 10 13 6 0 10 5 10 12 0 7 40 93 89 192 122 248
131 268 131 283 0 7 5 13 10 13 6 0 10 5 10 12 0 7 33 80 74 163 126 256 146
298 146 312 0 7 5 13 10 13 6 0 10 5 10 12 0 7 35 84 79 172 43 89 98 202 121
251 23 50 80 168 127 263 46 95 88 183 93 197 5 14 12 25 15 25 3 0 5 -531 5
-1180z"/>
<path d="M5780 5020 c0 -1397 3 -2540 8 -2540 4 0 17 -3 29 -6 l23 -6 2 2463
3 2464 78 -155 c42 -86 77 -161 77 -168 0 -7 5 -12 10 -12 6 0 10 -9 10 -20 0
-11 5 -20 10 -20 6 0 10 -9 10 -20 0 -11 5 -20 10 -20 6 0 10 -6 10 -13 0 -13
25 -66 146 -312 41 -83 74 -156 74 -163 0 -7 5 -12 10 -12 6 0 10 -9 10 -20 0
-11 5 -20 10 -20 6 0 10 -9 10 -20 0 -11 5 -20 10 -20 6 0 10 -6 10 -13 0 -12
29 -74 156 -332 35 -72 64 -136 64 -143 0 -7 5 -12 10 -12 6 0 10 -9 10 -20 0
-11 5 -20 10 -20 6 0 10 -9 10 -20 0 -11 5 -20 10 -20 6 0 10 -9 10 -20 0 -11
5 -20 10 -20 6 0 10 -6 10 -13 0 -13 25 -66 146 -312 41 -83 74 -156 74 -163
0 -7 5 -12 10 -12 6 0 10 -9 10 -20 0 -11 5 -20 10 -20 6 0 10 -9 10 -20 0
-11 5 -20 10 -20 6 0 10 -6 10 -13 0 -12 29 -74 156 -332 35 -72 64 -136 64
-143 0 -7 5 -12 10 -12 6 0 10 -9 10 -20 0 -11 5 -20 10 -20 6 0 10 -9 10 -20
0 -11 5 -20 10 -20 6 0 10 -6 10 -13 0 -12 37 -91 181 -382 32 -66 59 -126 59
-133 0 -7 5 -12 10 -12 6 0 10 -9 10 -20 0 -11 5 -20 10 -20 6 0 10 -9 10 -20
0 -11 5 -20 10 -20 6 0 10 -6 10 -13 0 -12 26 -69 131 -282 27 -56 49 -106 49
-113 0 -7 5 -12 10 -12 6 0 10 -9 10 -20 0 -11 5 -20 10 -20 6 0 10 -9 10 -20
0 -11 5 -20 10 -20 6 0 10 -9 10 -20 0 -11 5 -20 10 -20 6 0 10 -9 10 -20 0
-11 5 -20 10 -20 6 0 10 -6 10 -13 0 -13 25 -66 146 -312 41 -83 74 -156 74
-163 0 -7 5 -12 10 -12 6 0 10 -9 10 -20 0 -11 5 -20 10 -20 6 0 10 -9 10 -20
0 -11 5 -20 10 -20 6 0 10 -9 10 -20 0 -11 5 -20 10 -20 6 0 10 -6 10 -14 0
-13 21 -56 161 -341 32 -66 59 -126 59 -133 0 -7 5 -12 10 -12 6 0 10 -9 10
-20 0 -11 5 -20 10 -20 6 0 10 -9 10 -20 0 -11 5 -20 10 -20 6 0 10 -6 10 -13
0 -12 29 -74 156 -332 35 -72 64 -136 64 -143 0 -7 5 -12 10 -12 6 0 10 -9 10
-20 0 -11 5 -20 10 -20 6 0 10 -9 10 -20 0 -11 5 -20 10 -20 6 0 10 -6 10 -13
0 -12 29 -74 156 -332 35 -72 64 -136 64 -143 0 -7 5 -12 10 -12 6 0 10 -9 10
-20 0 -11 5 -20 10 -20 6 0 10 -9 10 -20 0 -11 5 -20 10 -20 6 0 10 -9 10 -20
0 -23 25 -27 45 -6 15 15 18 9 -96 241 -27 56 -49 106 -49 113 0 7 -4 12 -10
12 -5 0 -10 9 -10 20 0 11 -4 20 -10 20 -5 0 -10 5 -10 12 0 7 -28 68 -61 137
-130 266 -239 490 -289 596 -29 61 -92 191 -140 290 -48 99 -107 221 -130 270
-24 50 -83 171 -132 270 -48 99 -88 186 -88 193 0 6 -4 12 -10 12 -5 0 -10 5
-10 12 0 7 -28 68 -61 137 -127 260 -238 489 -287 592 -28 58 -83 171 -121
251 -39 79 -71 149 -71 156 0 7 -4 12 -10 12 -5 0 -10 9 -10 20 0 11 -4 20
-10 20 -5 0 -10 6 -10 13 0 11 -44 103 -206 432 -41 83 -74 156 -74 163 0 7
-4 12 -10 12 -5 0 -10 6 -10 13 0 11 -32 78 -191 402 -27 56 -49 106 -49 113
0 7 -3 12 -8 12 -4 0 -13 15 -21 33 -16 39 -86 186 -180 379 -39 79 -71 149
-71 156 0 7 -4 12 -10 12 -5 0 -10 9 -10 20 0 11 -4 20 -10 20 -5 0 -10 5 -10
12 0 11 -27 69 -191 404 -38 77 -69 145 -69 152 0 7 -4 12 -10 12 -5 0 -10 9
-10 20 0 11 -4 20 -10 20 -5 0 -10 6 -10 13 0 11 -35 85 -196 412 -35 72 -64
136 -64 143 0 7 -4 12 -10 12 -5 0 -10 5 -10 12 0 6 -14 42 -32 80 -29 60 -36
68 -60 68 l-28 0 0 -2540z"/>
<path d="M1024 5090 c0 -96 2 -136 3 -87 2 48 2 126 0 175 -1 48 -3 8 -3 -88z"/>
<path d="M4678 5093 c18 -2 45 -2 60 0 15 2 0 4 -33 4 -33 0 -45 -2 -27 -4z"/>
<path d="M7685 2911 c6 -11 -259 -280 -345 -351 -30 -24 -62 -52 -70 -60 -8
-9 -31 -27 -50 -40 -19 -13 -42 -32 -51 -42 -9 -10 -20 -18 -25 -18 -5 0 -22
-12 -39 -26 -16 -14 -42 -33 -57 -42 -16 -9 -28 -20 -28 -24 0 -4 -6 -8 -13
-8 -7 0 -23 -9 -35 -20 -12 -11 -25 -20 -30 -20 -4 0 -17 -8 -28 -17 -10 -10
-49 -34 -86 -53 -38 -19 -68 -38 -68 -42 0 -5 -9 -8 -20 -8 -11 0 -20 -3 -20
-7 0 -9 -49 -33 -67 -33 -7 0 -13 -4 -13 -10 0 -5 -9 -10 -20 -10 -11 0 -20
-4 -20 -10 0 -5 -9 -10 -20 -10 -11 0 -20 -4 -20 -10 0 -5 -6 -10 -13 -10 -8
0 -27 -6 -43 -14 -29 -14 -89 -40 -134 -58 -14 -6 -33 -14 -42 -19 -10 -5 -27
-9 -37 -9 -11 0 -23 -4 -26 -10 -3 -5 -17 -10 -30 -10 -13 0 -27 -4 -30 -10
-3 -5 -16 -10 -29 -10 -12 0 -26 -4 -31 -8 -6 -5 -30 -14 -55 -21 -25 -7 -53
-17 -62 -22 -10 -5 -31 -9 -47 -9 -17 0 -33 -4 -36 -10 -3 -5 -21 -10 -40 -10
-19 0 -36 -4 -39 -9 -3 -5 -29 -11 -58 -14 -29 -4 -80 -11 -113 -17 -105 -19
-206 -31 -360 -42 -258 -18 -365 -14 -645 22 -41 5 -100 12 -130 16 -30 3 -59
10 -64 15 -6 5 -29 9 -52 9 -24 0 -46 5 -49 10 -3 6 -21 10 -40 10 -19 0 -37
5 -40 10 -3 6 -21 10 -40 10 -19 0 -37 5 -40 10 -3 6 -19 10 -35 10 -16 0 -32
5 -35 10 -3 6 -16 10 -27 10 -21 0 -114 29 -168 52 -14 6 -35 15 -47 19 -39
15 -68 27 -162 66 -43 17 -169 80 -311 154 -36 19 -74 42 -84 52 -11 9 -24 17
-28 17 -12 0 -116 71 -195 132 -34 26 -66 48 -70 48 -4 1 -26 19 -48 40 -22
22 -44 40 -49 40 -5 0 -16 8 -25 18 -9 9 -35 34 -58 54 -23 20 -38 40 -35 44
4 4 2 4 -4 1 -15 -9 -187 160 -179 173 4 6 2 9 -4 8 -5 -2 -23 13 -40 32 l-30
35 -1 -48 c0 -47 1 -48 103 -148 56 -56 118 -113 137 -128 19 -14 55 -45 80
-68 25 -24 48 -43 52 -43 4 0 17 -10 30 -23 13 -12 39 -33 58 -47 19 -13 37
-27 40 -30 8 -10 218 -150 225 -150 4 0 25 -13 48 -28 23 -16 57 -35 75 -43
17 -8 32 -17 32 -21 0 -5 9 -8 19 -8 11 0 21 -3 23 -7 4 -11 87 -53 104 -53 8
0 14 -4 14 -10 0 -5 9 -10 20 -10 11 0 20 -4 20 -10 0 -5 9 -10 19 -10 11 0
23 -4 26 -10 3 -5 15 -10 26 -10 10 0 19 -4 19 -10 0 -5 11 -10 25 -10 14 0
25 -4 25 -10 0 -5 9 -10 20 -10 11 0 20 -4 20 -10 0 -5 11 -10 24 -10 14 0 27
-4 30 -8 3 -4 28 -14 56 -22 28 -8 53 -18 56 -22 3 -4 16 -8 29 -8 13 0 27 -4
30 -10 3 -5 19 -10 35 -10 16 0 32 -4 35 -10 3 -5 19 -10 35 -10 16 0 32 -4
35 -10 3 -5 24 -10 46 -10 21 0 39 -4 39 -10 0 -5 20 -10 45 -10 25 0 45 -4
45 -10 0 -5 23 -10 51 -10 31 0 48 -4 44 -10 -4 -6 17 -10 55 -10 38 0 59 -4
55 -10 -4 -6 24 -10 77 -10 57 0 78 -3 68 -10 -10 -6 107 -9 340 -9 195 1 344
5 330 9 -16 5 16 9 90 10 74 1 108 4 95 10 -14 6 0 9 47 9 37 1 70 6 73 11 3
6 31 10 61 10 34 0 53 4 49 10 -4 6 10 10 34 10 23 0 41 5 41 10 0 6 15 10 34
10 19 0 38 5 41 10 3 6 21 10 40 10 19 0 37 5 40 10 3 6 22 10 41 10 19 0 34
5 34 10 0 6 16 10 35 10 19 0 35 5 35 10 0 6 9 10 20 10 11 0 29 5 40 10 11 6
29 15 40 20 11 6 29 10 40 10 11 0 20 5 20 10 0 6 9 10 19 10 11 0 23 5 26 10
3 6 15 10 25 10 11 0 35 9 55 20 20 11 42 20 50 20 8 0 15 5 15 10 0 6 9 10
20 10 11 0 20 5 20 10 0 6 6 10 14 10 16 0 140 62 144 73 2 4 12 7 23 7 10 0
19 5 19 10 0 6 5 10 11 10 6 0 30 14 54 30 24 17 46 30 50 30 3 0 33 18 65 40
32 22 64 40 69 40 6 0 11 3 11 8 0 4 18 18 40 32 22 14 40 28 40 32 0 5 5 8
10 8 12 0 132 91 168 127 13 13 29 20 35 17 7 -4 9 -4 6 0 -4 4 21 33 54 64
34 31 112 108 174 170 110 110 113 114 113 158 0 24 -5 44 -11 44 -5 0 -8 -4
-4 -9z"/>
</g>
</svg>
