<?xml version="1.0" standalone="no"?>
<!DOCTYPE svg PUBLIC "-//W3C//DTD SVG 20010904//EN"
 "http://www.w3.org/TR/2001/REC-SVG-20010904/DTD/svg10.dtd">
<svg version="1.0" xmlns="http://www.w3.org/2000/svg"
 width="1000.000000pt" height="1000.000000pt" viewBox="0 0 1000.000000 1000.000000"
 preserveAspectRatio="xMidYMid meet">

<g transform="translate(0.000000,1000.000000) scale(0.100000,-0.100000)"
fill="#000000" stroke="none">
<path d="M3022 7764 c-18 -9 -41 -29 -52 -44 -10 -15 -458 -1048 -994 -2296
l-974 -2269 -319 -5 c-310 -5 -319 -6 -350 -28 -45 -32 -68 -96 -54 -149 12
-43 52 -90 89 -104 13 -5 344 -9 735 -9 658 0 715 1 747 18 99 49 107 188 13
249 -24 16 -59 19 -284 23 l-258 5 228 530 227 530 789 3 790 2 223 -520 c123
-286 225 -527 228 -535 5 -12 -34 -14 -249 -17 -292 -3 -295 -4 -331 -91 -17
-40 -18 -51 -7 -88 13 -43 50 -85 89 -100 13 -5 571 -9 1280 -9 1205 0 1259 1
1292 19 47 25 71 61 77 112 5 52 -18 102 -60 133 -27 20 -45 21 -360 26 l-332
5 -515 1200 c-284 660 -722 1682 -975 2270 -520 1211 -487 1146 -596 1152 -46
3 -73 -1 -97 -13z m663 -1809 c313 -731 579 -1354 592 -1382 l23 -53 -378 0
-377 0 -407 948 c-225 521 -408 952 -408 957 0 20 375 874 381 867 3 -4 262
-605 574 -1337z m-790 -665 c175 -404 320 -743 322 -752 5 -17 -31 -18 -652
-18 -361 0 -655 4 -653 8 76 193 655 1517 659 1509 4 -7 150 -343 324 -747z
m1761 -1598 c123 -288 224 -528 224 -533 0 -5 -154 -9 -372 -9 l-373 0 -222
518 c-122 284 -225 525 -229 535 -6 16 14 17 371 15 l376 -3 225 -523z"/>
<path d="M6230 5749 c-120 -48 -127 -199 -13 -258 12 -6 70 -11 132 -11 l111
0 0 -1164 0 -1164 -107 -3 c-118 -5 -157 -19 -197 -72 -44 -60 -17 -154 57
-195 29 -16 85 -17 704 -17 663 0 672 0 699 21 69 51 87 121 50 191 -26 52
-65 65 -199 71 l-118 5 3 896 3 896 27 80 c81 237 277 404 527 447 128 22 239
-24 313 -132 71 -101 68 -41 68 -1172 l0 -1018 -62 0 c-117 0 -187 -37 -209
-110 -10 -33 -9 -44 10 -84 14 -27 37 -54 59 -68 l37 -23 670 0 c639 0 671 1
701 19 64 38 86 125 50 193 -28 54 -64 66 -218 71 l-138 5 0 836 c0 499 -4
872 -10 926 -26 228 -102 392 -255 554 -85 90 -165 147 -276 200 -142 68 -214
82 -455 88 -401 10 -559 -31 -769 -198 l-75 -59 0 80 c0 100 -16 134 -73 161
-39 17 -71 19 -532 18 -300 0 -500 -4 -515 -10z m840 -1434 l0 -1165 -165 0
-165 0 0 1165 0 1165 165 0 165 0 0 -1165z m1646 970 c60 -60 90 -100 117
-156 75 -152 71 -92 75 -1086 l3 -893 -165 0 -165 0 -3 1053 -3 1052 -31 87
-32 88 62 -32 c38 -20 92 -63 142 -113z"/>
</g>
</svg>
